<?xml version="1.0" standalone="no"?>
<!DOCTYPE svg PUBLIC "-//W3C//DTD SVG 20010904//EN"
 "http://www.w3.org/TR/2001/REC-SVG-20010904/DTD/svg10.dtd">
<svg version="1.0" xmlns="http://www.w3.org/2000/svg"
 width="1500.000000pt" height="1000.000000pt" viewBox="0 0 1500.000000 1000.000000"
 preserveAspectRatio="xMidYMid meet">

<g transform="translate(0.000000,1000.000000) scale(0.100000,-0.100000)"
fill="#000000" stroke="none">
<path d="M0 6671 l0 -3329 658 -5 c662 -5 783 -10 1067 -48 105 -14 253 -23
495 -29 190 -5 390 -14 445 -20 95 -10 1045 -50 1189 -50 66 0 68 1 61 23 -20
63 -17 242 6 404 l23 166 113 73 c93 61 129 78 198 95 80 20 87 25 172 100 95
87 161 124 236 135 46 6 50 5 86 -30 l37 -36 130 24 c514 97 964 227 1533 440
109 41 264 91 347 111 371 90 464 136 525 256 33 67 41 70 121 38 73 -29 128
-22 339 47 372 120 626 227 729 304 45 35 59 41 85 35 92 -20 130 -17 266 21
133 38 136 38 374 45 132 3 285 12 340 19 74 9 234 10 615 6 702 -9 960 -25
1365 -82 146 -21 202 -25 296 -20 138 7 474 51 567 74 60 15 69 21 95 60 l29
44 117 -7 c115 -6 119 -5 501 69 l385 75 36 42 36 42 99 9 c138 13 172 23 192
58 22 38 44 42 139 29 43 -6 96 -8 117 -5 61 10 799 256 816 272 13 13 15 244
18 1944 l2 1930 -7500 0 -7500 0 0 -3329z"/>
<path d="M4160 3788 c-107 -78 -182 -150 -201 -193 -21 -46 -23 -121 -5 -180
l12 -40 24 45 c12 25 63 101 113 170 93 129 131 198 125 228 -2 15 -15 9 -68
-30z"/>
<path d="M4282 3746 c-13 -24 -62 -86 -108 -137 -47 -52 -98 -116 -114 -144
-32 -54 -60 -159 -60 -224 0 -36 3 -41 28 -47 15 -3 34 -8 43 -10 9 -3 40 11
69 31 28 19 56 35 60 35 4 0 13 21 19 46 7 25 30 81 51 125 l40 79 -21 94 -20
94 21 42 c12 23 20 46 18 51 -2 5 -13 -11 -26 -35z"/>
</g>
</svg>
